<?xml version="1.0" encoding="UTF-8" standalone="no"?>
<!-- Created with Inkscape (http://www.inkscape.org/) -->

<svg
   xmlns:dc="http://purl.org/dc/elements/1.1/"
   xmlns:cc="http://creativecommons.org/ns#"
   xmlns:rdf="http://www.w3.org/1999/02/22-rdf-syntax-ns#"
   xmlns:svg="http://www.w3.org/2000/svg"
   xmlns="http://www.w3.org/2000/svg"
   xmlns:sodipodi="http://sodipodi.sourceforge.net/DTD/sodipodi-0.dtd"
   xmlns:inkscape="http://www.inkscape.org/namespaces/inkscape"
   width="260.02551mm"
   height="42.183086mm"
   viewBox="0 0 260.02552 42.183086"
   version="1.1"
   id="svg8"
   inkscape:version="0.92.4 (unknown)"
   sodipodi:docname="logo.svg">
  <defs
     id="defs2" />
  <sodipodi:namedview
     id="base"
     pagecolor="#ffffff"
     bordercolor="#666666"
     borderopacity="1.0"
     inkscape:pageopacity="0.0"
     inkscape:pageshadow="2"
     inkscape:zoom="0.7"
     inkscape:cx="867.74821"
     inkscape:cy="-66.530028"
     inkscape:document-units="mm"
     inkscape:current-layer="g4528"
     showgrid="false"
     inkscape:window-width="1920"
     inkscape:window-height="1006"
     inkscape:window-x="0"
     inkscape:window-y="0"
     inkscape:window-maximized="1" />
  <metadata
     id="metadata5">
    <rdf:RDF>
      <cc:Work
         rdf:about="">
        <dc:format>image/svg+xml</dc:format>
        <dc:type
           rdf:resource="http://purl.org/dc/dcmitype/StillImage" />
        <dc:title />
      </cc:Work>
    </rdf:RDF>
  </metadata>
  <g
     inkscape:label="Livello 1"
     inkscape:groupmode="layer"
     id="layer1"
     transform="translate(6.4068565,-39.143844)">
    <g
       id="g4524">
      <g
         id="g4528"
         transform="translate(-9.8889725,-1.0690781)">
        <g
           aria-label="Watchnet"
           style="font-style:normal;font-weight:normal;font-size:10.58333302px;line-height:1.25;font-family:sans-serif;letter-spacing:0px;word-spacing:0px;fill:#ea8686;fill-opacity:1;stroke:#b00e0e;stroke-width:2;stroke-miterlimit:4;stroke-dasharray:none;stroke-opacity:1"
           id="text3715"
           transform="translate(-4.5435821,-49.979401)">
          <path
             id="path4530"
             style="font-style:normal;font-variant:normal;font-weight:bold;font-stretch:normal;font-size:50.79999924px;font-family:'Source Code Pro';-inkscape-font-specification:'Source Code Pro';fill:#ea8686;fill-opacity:1;stroke:#b00e0e;stroke-width:2;stroke-miterlimit:4;stroke-dasharray:none;stroke-opacity:1"
             d="m 23.521609,130.69048 h 7.7724 l 1.9304,-10.2616 c 0.4064,-2.0828 0.6604,-4.318 0.8636,-6.2992 h 0.1524 c 0.1016,1.9812 0.508,4.2164 0.9144,6.2992 l 1.9304,10.2616 h 8.0264 l 3.540467,-28.85481 0.240175,-1.957426 c 0,0 0.113977,-1.593175 -0.518451,-2.042098 -1.872662,-1.329293 -3.704305,-1.466844 -5.861235,-0.26727 -0.562736,0.312965 -0.668069,1.286091 -0.701426,1.929136 l -0.107338,2.069238 -0.706992,13.62923 c -0.1016,2.7432 -0.1524,5.2832 -0.2032,8.3312 h -0.2032 c -0.508,-3.048 -1.0668,-5.588 -1.6256,-8.3312 l -2.0828,-9.2456 h -4.7752 l -2.2352,9.2456 c -0.5588,2.794 -1.1684,5.334 -1.6256,8.3312 h -0.2032 c -0.0508,-2.9972 -0.1016,-5.4864 -0.1524,-8.3312 0,0 -0.09189,-5.7343 -0.558094,-9.68292 -0.466207,-3.94862 -2.901451,-16.924953 -6.572342,-13.85982 -3.671177,3.065372 -7.280818,6.20248 -10.8985717,9.33035 -3.6176558,3.12779 5.4106697,0.61381 9.0755277,5.49869 3.664858,4.88488 4.58468,24.2077 4.58468,24.2077 z"
             inkscape:connector-curvature="0"
             sodipodi:nodetypes="ccccccccccsssccccccccccczsssc" />
          <path
             d="m 60.738165,131.30008 c 3.2512,0 6.4008,-1.524 8.9408,-3.4544 h 0.2032 l 0.5588,2.8448 h 6.096 v -14.4272 c 0,-7.7216 -4.318,-11.3792 -11.3792,-11.3792 -4.318,0 -8.3312,1.4224 -11.7856,3.4036 l 2.6416,4.8768 c 2.8448,-1.4224 5.2324,-2.3368 7.6708,-2.3368 3.4036,0 5.1308,1.3716 5.3848,3.6576 -11.938,0.7112 -16.6116,3.556 -16.6116,9.1948 0,4.2672 3.2004,7.62 8.2804,7.62 z m 2.3876,-5.7912 c -2.1336,0 -3.5052,-0.762 -3.5052,-2.3876 0,-2.1844 2.032,-3.7592 9.4488,-4.1656 v 4.1656 c -1.778,1.3716 -3.7084,2.3876 -5.9436,2.3876 z"
             style="font-style:normal;font-variant:normal;font-weight:bold;font-stretch:normal;font-size:50.79999924px;font-family:'Source Code Pro';-inkscape-font-specification:'Source Code Pro';fill:#ea8686;fill-opacity:1;stroke:#b00e0e;stroke-width:2;stroke-miterlimit:4;stroke-dasharray:none;stroke-opacity:1"
             id="path4532"
             inkscape:connector-curvature="0" />
          <path
             d="m 99.52952,131.30008 c 3.3528,0 5.9944,-0.7112 8.2296,-1.3716 l -1.3208,-5.3848 c -1.524,0.508 -3.0988,0.9144 -4.9784,0.9144 -3.7084,0 -5.334,-1.4732 -5.334,-5.2832 v -8.8392 h 10.668 v -5.842 h -10.668 v -7.721604 h -6.1468 l -0.9652,7.721604 -6.7056,0.3048 v 5.5372 h 6.35 v 8.89 c 0,6.604 2.8448,11.0744 10.8712,11.0744 z"
             style="font-style:normal;font-variant:normal;font-weight:bold;font-stretch:normal;font-size:50.79999924px;font-family:'Source Code Pro';-inkscape-font-specification:'Source Code Pro';fill:#ea8686;fill-opacity:1;stroke:#b00e0e;stroke-width:2;stroke-miterlimit:4;stroke-dasharray:none;stroke-opacity:1"
             id="path4534"
             inkscape:connector-curvature="0" />
          <path
             d="m 127.70367,131.30008 c 3.4544,0 7.3152,-1.1684 10.3632,-3.7084 l -2.9972,-4.7244 c -1.8288,1.27 -4.0132,2.3876 -6.6548,2.3876 -4.1656,0 -7.0612,-2.794 -7.0612,-7.1628 0,-4.3688 2.9972,-7.1628 7.3152,-7.1628 1.8796,0 3.6576,0.6096 5.588,1.9812 l 3.4544,-4.6228 c -2.1336,-1.9812 -5.4864,-3.4036 -9.4488,-3.4036 -7.7724,0 -14.5796,4.826 -14.5796,13.208 0,8.382 6.096,13.208 14.0208,13.208 z"
             style="font-style:normal;font-variant:normal;font-weight:bold;font-stretch:normal;font-size:50.79999924px;font-family:'Source Code Pro';-inkscape-font-specification:'Source Code Pro';fill:#ea8686;fill-opacity:1;stroke:#b00e0e;stroke-width:2;stroke-miterlimit:4;stroke-dasharray:none;stroke-opacity:1"
             id="path4536"
             inkscape:connector-curvature="0" />
          <path
             d="m 144.39703,130.69048 h 7.4676 v -16.8148 c 1.778,-1.7272 3.0988,-2.6416 5.1308,-2.6416 2.7432,0 3.7084,1.524 3.7084,4.8768 v 14.5796 h 7.4676 v -15.5448 c 0,-6.35 -2.54,-10.2616 -8.1788,-10.2616 -3.81,0 -6.5024,1.8288 -8.382,3.7592 h -0.1524 l 0.4064,-4.826 v -8.737604 h -7.4676 z"
             style="font-style:normal;font-variant:normal;font-weight:bold;font-stretch:normal;font-size:50.79999924px;font-family:'Source Code Pro';-inkscape-font-specification:'Source Code Pro';fill:#ea8686;fill-opacity:1;stroke:#b00e0e;stroke-width:2;stroke-miterlimit:4;stroke-dasharray:none;stroke-opacity:1"
             id="path4538"
             inkscape:connector-curvature="0" />
          <path
             d="m 174.85719,130.69048 h 7.4676 v -16.8148 c 1.778,-1.7272 3.0988,-2.6416 5.1308,-2.6416 2.7432,0 3.7084,1.524 3.7084,4.8768 v 14.5796 h 7.4676 v -15.5448 c 0,-6.35 -2.54,-10.2616 -8.2296,-10.2616 -3.7592,0 -6.5024,1.8288 -8.6868,3.9624 h -0.2032 l -0.5588,-3.3528 h -6.096 z"
             style="font-style:normal;font-variant:normal;font-weight:bold;font-stretch:normal;font-size:50.79999924px;font-family:'Source Code Pro';-inkscape-font-specification:'Source Code Pro';fill:#ea8686;fill-opacity:1;stroke:#b00e0e;stroke-width:2;stroke-miterlimit:4;stroke-dasharray:none;stroke-opacity:1"
             id="path4540"
             inkscape:connector-curvature="0" />
          <path
             d="m 218.42373,131.30008 c 3.3528,0 7.112,-1.1176 10.0076,-2.9464 l -2.4892,-4.5212 c -2.2352,1.1684 -4.2164,1.778 -6.5024,1.778 -4.1148,0 -6.8072,-1.6256 -7.5184,-5.2832 h 17.1704 c 0.1016,-0.6096 0.3556,-1.9812 0.3556,-3.3528 0,-6.858 -4.1148,-12.0904 -11.8872,-12.0904 -6.7564,0 -13.1064,4.9276 -13.1064,13.208 0,8.382 6.096,13.208 13.97,13.208 z m -0.6096,-20.7264 c 2.8956,0 4.6228,1.6256 4.9784,4.7244 h -10.7696 c 0.762,-3.1496 2.8448,-4.7244 5.7912,-4.7244 z"
             style="font-style:normal;font-variant:normal;font-weight:bold;font-stretch:normal;font-size:50.79999924px;font-family:'Source Code Pro';-inkscape-font-specification:'Source Code Pro';fill:#ea8686;fill-opacity:1;stroke:#b00e0e;stroke-width:2;stroke-miterlimit:4;stroke-dasharray:none;stroke-opacity:1"
             id="path4542"
             inkscape:connector-curvature="0" />
          <path
             d="m 251.83029,131.30008 c 1.42378,0 4.51154,0.14089 6.76364,0.0352 2.83026,-0.13278 8.87004,0.4364 8.45852,-0.83987 l -3.77765,-11.7159 c -0.49298,-1.52892 -5.65314,7.00474 -9.51411,6.67854 -2.49364,-0.21068 -5.334,-1.4732 -5.334,-5.2832 v -8.8392 h 10.668 v -5.842 h -10.668 v -7.721604 h -6.1468 l -0.9652,7.721604 -6.7056,0.3048 v 5.5372 h 6.35 v 8.89 c 0,6.604 2.8448,11.0744 10.8712,11.0744 z"
             style="font-style:normal;font-variant:normal;font-weight:bold;font-stretch:normal;font-size:50.79999924px;font-family:'Source Code Pro';-inkscape-font-specification:'Source Code Pro';fill:#ea8686;fill-opacity:1;stroke:#b00e0e;stroke-width:2;stroke-miterlimit:4;stroke-dasharray:none;stroke-opacity:1"
             id="path4544"
             inkscape:connector-curvature="0"
             sodipodi:nodetypes="sassasccccccccccss" />
        </g>
      </g>
    </g>
  </g>
</svg>
